<svg width="1827" height="587" viewBox="0 0 1827 587" fill="none" xmlns="http://www.w3.org/2000/svg">
<path d="M0 0L103.864 142.742C129.376 177.803 158.833 209.816 191.656 238.149L231.382 272.443C258.634 295.969 290.053 314.18 324.013 326.135C377.085 344.819 434.466 347.561 489.078 334.021L549.934 318.934C660.495 291.525 777.112 302.865 880.32 351.062L901.369 360.891C984.633 399.775 1076.15 417.702 1167.93 413.11L1266.66 408.17C1310.88 405.958 1354.77 399.473 1397.74 388.805C1527.26 356.645 1663.35 362.952 1789.35 406.954L1827 420.103V587H0V0Z" fill="#FFEAD7"/>
</svg>
