<svg width="20" height="27" viewBox="0 0 20 27" fill="none" xmlns="http://www.w3.org/2000/svg">
<g id="Pin">
<path id="Vector" d="M6.18145 13.4835C5.72416 13.1184 5.48519 12.5939 5.17923 12.1246C4.79371 11.5284 4.43048 10.9177 4.09764 10.2937C3.78961 9.72258 3.52026 9.128 3.26252 8.53357C3.17581 8.33694 3.08321 8.22938 2.86633 8.20244C2.31546 8.13212 1.82714 7.90948 1.37016 7.60497C0.9431 7.32143 0.683602 6.93616 0.594046 6.44459C0.536781 6.13634 0.497019 5.82261 0.458845 5.56149C0.882915 5.31119 1.25081 5.08985 1.61982 4.87195C3.61573 3.71251 5.76374 2.89232 7.95216 2.17326C8.16921 2.10533 8.34201 2.1271 8.52833 2.26221C8.78021 2.44507 8.90335 2.69478 9.02506 2.96389C9.21996 3.39973 9.40196 3.8434 9.62614 4.26249C9.92509 4.81747 9.88799 5.31076 9.45627 5.77584C9.29937 5.94631 9.14596 6.11569 8.95835 6.32233C9.88928 7.62768 10.838 8.9047 11.4843 10.3788C11.7368 10.3491 11.9543 10.3303 12.1731 10.3035C13.6105 10.123 14.8443 10.5409 15.8713 11.5355C16.0857 11.7453 16.2492 12.0127 16.4 12.2765C16.6404 12.6981 16.5408 13.0099 16.1203 13.2591C15.4185 13.6759 14.6927 14.0662 14.0137 14.5176C13.4555 14.8896 12.9463 15.3296 12.4212 15.7443C12.3448 15.8061 12.2821 15.8864 12.2279 15.9451C12.2306 16.0011 12.2231 16.0376 12.2368 16.0561C13.4508 17.6407 14.3648 19.4065 15.3258 21.1386C15.6532 21.734 15.9057 22.3718 16.1724 22.9938C16.2298 23.1237 16.2089 23.2857 16.2264 23.4471C15.9968 23.4166 15.8167 23.3364 15.6721 23.3779C15.4108 23.4521 15.2731 23.3245 15.157 23.1561C14.8132 22.653 14.4623 22.1522 14.1478 21.6325C13.5087 20.5619 12.8988 19.4747 12.2632 18.4031C12.1259 18.1692 11.9359 17.9631 11.7693 17.746C11.6632 17.6086 11.5512 17.4767 11.458 17.3314C11.3647 17.1862 11.2914 17.0309 11.1781 16.8236C11.0159 16.954 10.881 17.0493 10.7563 17.1642C9.79734 18.0256 8.77463 18.7971 7.62193 19.393C7.40075 19.5077 7.1829 19.6328 6.95392 19.7234C6.76584 19.7974 6.5628 19.861 6.3639 19.8777C5.77659 19.9212 5.37864 19.6324 5.32394 19.0578C5.26749 18.4421 5.24955 17.8144 5.30575 17.2013C5.4075 16.0734 5.69 14.9799 6.1819 13.9499C6.26561 13.7795 6.30491 13.6269 6.17349 13.4708L6.15281 13.4545L6.18033 13.48L6.18145 13.4835ZM6.06058 15.1484C5.89827 15.2068 5.90256 15.3154 5.96349 15.4442C5.9401 15.4554 5.90049 15.464 5.89555 15.4845C5.71921 16.1313 5.54175 16.7747 5.57528 17.4507C5.54185 17.6811 5.50493 17.9127 5.4715 18.1431C5.50061 18.3047 5.53083 18.4697 5.55994 18.6312C5.58094 18.6247 5.60195 18.6181 5.62295 18.6115L5.47039 18.1397C5.69173 17.9301 5.59993 17.6819 5.56033 17.4402C5.69053 16.7699 5.82184 16.103 5.94854 15.4338C5.97894 15.337 6.01172 15.2357 6.04101 15.1355C6.05995 15.0272 6.07539 14.92 6.09433 14.8116C6.15194 14.6798 6.20716 14.5526 6.26477 14.4208C6.31362 14.3334 6.35786 14.2437 6.40672 14.1563C6.37314 14.1479 6.34307 14.1383 6.30839 14.1264L6.2775 14.4244C6.21989 14.5562 6.16467 14.6834 6.10706 14.8152C6.09162 14.9225 6.07268 15.0308 6.05835 15.1415L6.06058 15.1484ZM6.83421 15.3234C6.84423 15.3544 6.86237 15.3867 6.87239 15.4177C6.85632 15.4872 6.83563 15.5544 6.81955 15.6239L6.82687 15.5988L6.83133 15.6126C6.77276 15.813 6.71308 16.0099 6.65801 16.2092L6.66978 16.1979C6.60738 16.6726 6.54387 17.1438 6.48146 17.6184L6.48974 17.6083C6.48607 17.7042 6.48129 17.7967 6.47763 17.8927L6.4859 17.8825C6.44944 18.2467 6.39087 18.6139 6.65674 18.9593C6.78547 18.8924 6.89638 18.8539 6.98676 18.7877C7.55023 18.3724 8.132 17.978 8.6646 17.5268C9.46294 16.8484 10.2282 16.1272 11.0071 15.4245C11.8308 14.6813 12.6944 13.99 13.6356 13.3958C13.9685 13.1854 14.3082 12.9843 14.6479 12.7831C14.7991 12.6903 14.8959 12.5841 14.8149 12.3933C14.5282 11.7093 14.0855 11.2107 13.2839 11.1278C12.8767 11.0846 12.4648 11.0505 12.0539 11.0197C11.8055 11.0027 11.522 10.9245 11.3151 11.012C10.9832 11.1538 10.7986 10.9765 10.6408 10.7983C10.3172 10.4293 9.98557 10.0476 9.74755 9.62148C9.14916 8.5458 8.59995 7.44335 8.03434 6.34982C7.87826 6.04595 7.73268 5.7388 7.53842 5.34068C7.8304 5.39721 8.03551 5.43542 8.26257 5.48193C8.41884 5.27373 8.57972 5.06788 8.73026 4.85389C8.89735 4.61954 8.9077 4.37736 8.77072 4.12062C8.64964 3.88923 8.53907 3.65455 8.43788 3.41315C8.25699 2.97292 8.24569 2.94991 7.79967 3.10847C7.01614 3.39162 6.23708 3.68855 5.46819 4.00505C4.56023 4.38025 3.67152 4.79114 2.76817 5.16868C2.22477 5.39565 1.72845 5.7444 1.05059 5.78209C1.16196 6.12651 1.25392 6.44666 1.36926 6.75569C1.41412 6.8706 1.49256 6.99397 1.59264 7.06505C2.05169 7.38788 2.57152 7.51721 3.13513 7.42426C3.61027 7.34382 3.92581 7.29436 4.23589 7.96723C4.73865 9.06905 5.28118 10.1508 5.98284 11.1525C6.33256 11.6498 6.61783 12.1864 6.93938 12.7039C7.05982 12.8976 7.186 13.097 7.3346 13.2705C7.5346 13.5075 7.54192 13.5659 7.39058 13.837C7.26661 14.0617 7.14837 14.2921 7.0602 14.5321C6.96599 14.7891 6.90646 15.0581 6.83309 15.32L6.83421 15.3234ZM6.55106 2.91898C6.55106 2.91898 6.54534 2.91318 6.54073 2.91084L6.13464 3.03793C6.13464 3.03793 6.13687 3.04482 6.13798 3.04826L6.55106 2.91898ZM4.921 3.505C4.921 3.505 4.92323 3.51189 4.92434 3.51533L5.25691 3.41124C5.25691 3.41124 5.25469 3.40435 5.25357 3.40091L4.921 3.505ZM7.65411 2.46755C7.65411 2.46755 7.66668 2.48258 7.67591 2.48727L7.85445 2.43139C7.85445 2.43139 7.84888 2.41418 7.84665 2.40729L7.65411 2.46755ZM4.32556 3.79755C4.32556 3.79755 4.31999 3.78034 4.31777 3.77345L4.14018 3.84419C4.14018 3.84419 4.14241 3.85109 4.14464 3.85797L4.32668 3.801L4.32556 3.79755ZM3.62525 4.11155C3.62525 4.11155 3.6208 4.09777 3.61857 4.09089L3.44354 4.14567C3.44354 4.14567 3.44799 4.15944 3.45022 4.16633L3.62525 4.11155ZM2.06854 4.85288C2.06854 4.85288 2.04738 4.87088 2.0391 4.88105C2.04961 4.87777 2.0636 4.87338 2.07411 4.8701C2.08461 4.86681 2.094 4.86008 2.10339 4.85335C2.09178 4.85319 2.08016 4.85304 2.06854 4.85288ZM2.49547 4.6472L2.48179 4.62873C2.45729 4.6364 2.43389 4.64751 2.4105 4.65862C2.41273 4.66551 2.42418 4.67709 2.42418 4.67709C2.44869 4.66942 2.47208 4.65831 2.49547 4.6472ZM3.07787 4.3739C3.04891 4.36779 3.03395 4.3573 3.02807 4.36294C3.00579 4.3775 2.98112 4.3966 2.95885 4.41115L3.07787 4.3739ZM1.2325 5.31935C1.2325 5.31935 1.25127 5.30589 1.26066 5.29916C1.25143 5.29446 1.23759 5.28741 1.23059 5.2896C1.22009 5.29289 1.21182 5.30307 1.20131 5.30636C1.21054 5.31105 1.22215 5.31121 1.23138 5.3159L1.2325 5.31935ZM1.71146 5.04808C1.71146 5.04808 1.69046 5.05465 1.67646 5.05903C1.68919 5.06264 1.70542 5.06514 1.71815 5.06874C1.71592 5.06185 1.71369 5.05497 1.71146 5.04808ZM0.974711 5.47588L0.949256 5.46868L0.948935 5.49154L0.974711 5.47588Z" fill="#FF7A00"/>
<path id="Vector_2" d="M6.86739 15.4234C6.85626 15.3889 6.84512 15.3545 6.83398 15.3201C6.84417 15.3396 6.86247 15.3605 6.86915 15.3811C6.87249 15.3915 6.86994 15.4074 6.86978 15.4189L6.86739 15.4234Z" fill="#FF7A00"/>
<path id="Vector_3" d="M6.65467 16.2102C6.65467 16.2102 6.66315 16.1996 6.66676 16.1985L6.65467 16.2102Z" fill="#FF7A00"/>
<path id="Vector_4" d="M6.4786 17.6195L6.47475 17.633L6.48365 17.6098L6.4786 17.6195Z" fill="#FF7A00"/>
<path id="Vector_5" d="M6.4747 17.8947L6.47085 17.9082L6.47975 17.885L6.4747 17.8947Z" fill="#FF7A00"/>
</g>
</svg>
